<?xml version="1.0" encoding="UTF-8" standalone="no"?>
<!DOCTYPE svg PUBLIC "-//W3C//DTD SVG 1.1//EN" "http://www.w3.org/Graphics/SVG/1.1/DTD/svg11.dtd">
<svg width="100%" height="100%" viewBox="0 0 660 1278" version="1.1" xmlns="http://www.w3.org/2000/svg" xmlns:xlink="http://www.w3.org/1999/xlink" xml:space="preserve" xmlns:serif="http://www.serif.com/" style="fill-rule:evenodd;clip-rule:evenodd;stroke-linecap:round;stroke-linejoin:round;">
    <g id="door" transform="matrix(1,0,0,1,-1056.95,573)">
        <rect x="1056.95" y="-573" width="660" height="1278" style="fill:none;"/>
        <g transform="matrix(1,0,0,1,1056.95,-573)">
            <path d="M660,1278L0,1278L0,228.321C0,102.307 102.307,0 228.321,0L431.679,0C557.693,0 660,102.307 660,228.321L660,1278Z" style="fill:rgb(55,27,101);"/>
            <clipPath id="_clip1">
                <path d="M660,1278L0,1278L0,228.321C0,102.307 102.307,0 228.321,0L431.679,0C557.693,0 660,102.307 660,228.321L660,1278Z"/>
            </clipPath>
            <g clip-path="url(#_clip1)">
                <g transform="matrix(1,0,0,1,-1056.95,573)">
                    <g transform="matrix(0.6181,0,0,0.951928,1247.77,-614.15)">
                        <rect x="111.934" y="177.334" width="420.637" height="514.193" style="fill:rgb(235,235,235);"/>
                    </g>
                    <g transform="matrix(0.5,0,0,0.812942,1281.95,-522.206)">
                        <rect x="330" y="67.046" width="30.809" height="657.113" style="fill:rgb(55,27,101);"/>
                    </g>
                    <g transform="matrix(3.06162e-17,0.5,-0.445955,2.73069e-17,1631.07,-373.306)">
                        <rect x="330" y="67.046" width="30.809" height="657.113" style="fill:rgb(55,27,101);"/>
                    </g>
                </g>
                <g transform="matrix(2.0318,0,0,2.0318,666.16,639)">
                    <g transform="matrix(1,0,0,1,-327.5,-314.5)">
                        <clipPath id="_clip2">
                            <rect x="0" y="0" width="655" height="629"/>
                        </clipPath>
                        <g clip-path="url(#_clip2)">
                            <g id="Layer_2" transform="matrix(0.987202,0,0,0.987202,4.28497,27.215)">
                                <g transform="matrix(1.00153,0,0,1.00153,-1.02442e-13,-18.7835)">
                                    <path d="M285.44,280.19C285.44,273.39 296.14,267.89 309.33,267.89C322.52,267.89 333.22,273.39 333.22,280.19C333.22,286.99 322.52,292.48 309.33,292.48C296.14,292.48 285.44,287 285.44,280.19Z" style="fill:rgb(96,99,106);"/>
                                </g>
                                <g transform="matrix(1.00153,0,0,1.00153,-1.02442e-13,-18.7835)">
                                    <path d="M230.55,300.18L138,584" style="fill:none;fill-rule:nonzero;stroke:rgb(69,69,69);stroke-width:4px;"/>
                                </g>
                                <g transform="matrix(1.00153,0,0,1.00153,-1.02442e-13,-18.7835)">
                                    <path d="M305.66,300.18L213.15,584" style="fill:none;fill-rule:nonzero;stroke:rgb(69,69,69);stroke-width:4px;"/>
                                </g>
                                <g transform="matrix(1.00153,0,0,1.00153,-1.02442e-13,-18.7835)">
                                    <path d="M305.66,300.18L398.16,584" style="fill:none;fill-rule:nonzero;stroke:rgb(69,69,69);stroke-width:4px;"/>
                                </g>
                                <g transform="matrix(1.00153,0,0,1.00153,-1.02442e-13,-18.7835)">
                                    <path d="M230.55,300.18L323.05,584" style="fill:none;fill-rule:nonzero;stroke:rgb(69,69,69);stroke-width:4px;"/>
                                </g>
                                <g transform="matrix(1.00153,0,0,1.00153,-1.02442e-13,-18.7835)">
                                    <path d="M332.97,115.39L325.99,115.39C319.857,115.39 314.81,120.437 314.81,126.57L314.81,245C314.837,251.12 319.88,256.14 326,256.14L333.19,256.14C333.13,255.46 332.97,254.8 332.97,254.14L332.97,115.39Z" style="fill:rgb(155,155,155);"/>
                                </g>
                                <g transform="matrix(0.42602,0,0,1.00153,94.2974,-18.7835)">
                                    <path d="M168.27,282.94L625.75,282.94C628.175,282.94 630.17,284.935 630.17,287.36L630.17,295.36C630.17,297.785 628.175,299.78 625.75,299.78L168.27,299.78C165.845,299.78 163.85,297.785 163.85,295.36L163.85,287.36C163.85,284.935 165.845,282.94 168.27,282.94Z" style="fill:rgb(189,103,41);"/>
                                </g>
                                <g transform="matrix(1.00153,0,0,1.00153,-1.02442e-13,-18.7835)">
                                    <path d="M248.11,566L255.36,589.34L285.44,582.47L282.49,552.79L248.11,566Z"/>
                                </g>
                                <g transform="matrix(1.00153,0,0,1.00153,-1.02442e-13,-18.7835)">
                                    <path d="M147.78,537.54L138.04,559.54L165,571.09L177,548.85L147.78,537.54Z"/>
                                </g>
                                <g transform="matrix(1.00153,0,0,1.00153,-1.02442e-13,-18.7835)">
                                    <path d="M137.42,557.51L165.92,569.85C165.92,569.85 201.44,603.13 217.83,611.24C217.78,618.63 216.83,622.06 211.15,624.17C208.61,625.11 162.7,606.73 162.7,606.73L155,598.47L125.3,584.81L137.42,557.51Z"/>
                                </g>
                                <g transform="matrix(1.00153,0,0,1.00153,3.52524,-17.17)">
                                    <path d="M123.06,579.56L152.13,592.49C153.692,593.171 154.422,595.014 153.75,596.58L151.21,602.29C150.706,603.389 149.602,604.097 148.393,604.097C147.943,604.097 147.498,603.999 147.09,603.81L118,590.88C116.864,590.392 116.125,589.268 116.125,588.032C116.125,587.608 116.212,587.189 116.38,586.8L118.91,581.09C119.417,579.983 120.528,579.27 121.746,579.27C122.2,579.27 122.648,579.369 123.06,579.56Z" style="fill:rgb(11,11,11);"/>
                                </g>
                                <g transform="matrix(1.00153,0,0,1.00153,-1.02442e-13,-18.7835)">
                                    <path d="M254.76,587.19L284.62,578.67C284.62,578.67 333.19,581.9 351.01,577.78C355.66,583.53 357.13,586.78 354.01,592.02C352.64,594.35 305.48,609.24 305.48,609.24L294.29,607.73L262.7,616L254.76,587.19Z"/>
                                </g>
                                <g transform="matrix(1.00153,0,0,1.00153,-1.02442e-13,-18.7835)">
                                    <path d="M73.89,327C140.1,308.35 235.08,318.68 255.57,347.13C262.89,357.29 260.41,373.19 258.57,379.18C256.73,385.17 179.25,551.4 179.25,551.4L144.51,538.19L178.65,403.19C178.65,403.19 65.66,329.3 73.89,327Z" style="fill:rgb(0,2,18);"/>
                                </g>
                                <g transform="matrix(1.00153,0,0,1.00153,5.20789,-17.8821)">
                                    <path d="M257.63,613.36L288.31,604.93C288.59,604.849 288.88,604.808 289.171,604.808C290.549,604.808 291.769,605.726 292.15,607.05L293.81,613.05C293.878,613.308 293.912,613.573 293.912,613.839C293.912,615.247 292.953,616.487 291.59,616.84L260.91,625.27C260.63,625.351 260.34,625.392 260.049,625.392C258.671,625.392 257.451,624.474 257.07,623.15L255.41,617.15C255.342,616.892 255.308,616.627 255.308,616.361C255.308,614.953 256.267,613.713 257.63,613.36Z" style="fill:rgb(11,11,11);"/>
                                </g>
                                <g transform="matrix(1.00153,0,0,1.00153,-1.02442e-13,-18.7835)">
                                    <path d="M156.81,542.86L196.8,414" style="fill:none;fill-rule:nonzero;stroke:rgb(29,29,30);stroke-width:4px;"/>
                                </g>
                                <g transform="matrix(1.00153,0,0,1.00153,-1.02442e-13,-18.7835)">
                                    <path d="M19.63,408.63L171.43,408.63C182.199,408.63 191.06,417.491 191.06,428.26C191.06,439.029 182.199,447.89 171.43,447.89L19.63,447.89C8.861,447.89 0,439.029 0,428.26C0,417.491 8.861,408.63 19.63,408.63Z" style="fill:rgb(0,2,18);"/>
                                </g>
                                <g transform="matrix(1.00153,0,0,1.00153,-1.02442e-13,-18.7835)">
                                    <path d="M89.17,434.48L101.89,434.48C103.975,434.48 105.69,436.195 105.69,438.28L105.69,578.88C105.69,580.965 103.975,582.68 101.89,582.68L89.17,582.68C87.085,582.68 85.37,580.965 85.37,578.88L85.37,438.28C85.37,436.195 87.085,434.48 89.17,434.48Z" style="fill:rgb(0,2,18);"/>
                                </g>
                                <g transform="matrix(1.00153,0,0,1.00153,-1.02442e-13,-18.7835)">
                                    <path d="M84,537.54L107.05,537.54C110.484,537.54 113.31,540.366 113.31,543.8L113.31,577.74C113.31,581.174 110.484,584 107.05,584L84,584C80.566,584 77.74,581.174 77.74,577.74L77.74,543.8C77.74,540.366 80.566,537.54 84,537.54Z" style="fill:rgb(0,2,18);"/>
                                </g>
                                <g transform="matrix(1.00153,0,0,1.00153,-1.02442e-13,-18.7835)">
                                    <path d="M19.32,608.17L19.32,601.54C19.32,591.918 27.238,584 36.86,584L95.53,584" style="fill:none;fill-rule:nonzero;stroke:black;stroke-width:4px;"/>
                                </g>
                                <g transform="matrix(1.00153,0,0,1.00153,-1.02442e-13,-18.7835)">
                                    <path d="M171.57,608.17L171.57,601.54C171.565,591.916 163.644,584 154.02,584L95.35,584" style="fill:none;fill-rule:nonzero;stroke:black;stroke-width:4px;"/>
                                </g>
                                <g transform="matrix(1.00153,0,0,1.00153,-1.02442e-13,-18.7835)">
                                    <path d="M66.78,608.17L66.78,600.17C66.78,591.24 71.43,584 77.16,584L113.9,584C119.63,584 124.28,591.24 124.28,600.17L124.28,608.17" style="fill:none;fill-rule:nonzero;stroke:black;stroke-width:4px;"/>
                                </g>
                                <g transform="matrix(1.00153,0,0,1.00153,-1.02442e-13,-18.7835)">
                                    <path d="M9.71,617.79C9.71,612.518 14.048,608.18 19.32,608.18C24.592,608.18 28.93,612.518 28.93,617.79C28.93,623.062 24.592,627.4 19.32,627.4C14.05,627.395 9.715,623.06 9.71,617.79Z" style="fill:none;fill-rule:nonzero;stroke:black;stroke-width:4px;"/>
                                </g>
                                <g transform="matrix(1.00153,0,0,1.00153,-1.02442e-13,-18.7835)">
                                    <path d="M57.17,617.79C57.17,612.518 61.508,608.18 66.78,608.18C72.052,608.18 76.39,612.518 76.39,617.79C76.39,623.062 72.052,627.4 66.78,627.4C61.51,627.395 57.175,623.06 57.17,617.79Z" style="fill:none;fill-rule:nonzero;stroke:black;stroke-width:4px;"/>
                                </g>
                                <g transform="matrix(1.00153,0,0,1.00153,-1.02442e-13,-18.7835)">
                                    <path d="M124.28,608.17L124.29,608.17C129.567,608.17 133.91,612.513 133.91,617.79C133.91,623.067 129.567,627.41 124.29,627.41C119.013,627.41 114.67,623.067 114.67,617.79C114.67,612.516 119.006,608.175 124.28,608.17" style="fill:none;fill-rule:nonzero;stroke:black;stroke-width:4px;"/>
                                </g>
                                <g transform="matrix(1.00153,0,0,1.00153,-1.02442e-13,-18.7835)">
                                    <path d="M162,617.79C162,612.518 166.338,608.18 171.61,608.18C176.882,608.18 181.22,612.518 181.22,617.79C181.22,623.062 176.882,627.4 171.61,627.4C166.34,627.395 162.005,623.06 162,617.79Z" style="fill:none;fill-rule:nonzero;stroke:black;stroke-width:4px;"/>
                                </g>
                                <g transform="matrix(1.00153,0,0,1.00153,-1.02442e-13,-18.7835)">
                                    <path d="M25.32,287.87C-35.25,414.39 87,417.8 129.9,417.17C172.8,416.54 184.09,413.31 195.7,410.5C199.41,421.74 243.88,567.3 243.88,567.3L282.93,555.5C282.93,555.5 253.08,370.58 246.34,358.09C227.83,323.75 118.34,321.89 104.49,322.72C90.64,323.55 33,271.83 25.32,287.87Z" style="fill:rgb(0,2,18);"/>
                                </g>
                                <g transform="matrix(1.00153,0,0,1.00153,-1.02442e-13,-18.7835)">
                                    <path d="M148,524.33L185.28,538.33" style="fill:none;fill-rule:nonzero;stroke:rgb(29,29,30);stroke-width:4px;"/>
                                </g>
                                <g transform="matrix(1.00153,0,0,1.00153,-4.38169,-4.69199)">
                                    <path d="M148,524.33L185.28,538.33" style="fill:none;fill-rule:nonzero;stroke:rgb(29,29,30);stroke-width:4px;"/>
                                </g>
                                <g transform="matrix(1.00153,0,0,1.00153,-1.02442e-13,-18.7835)">
                                    <path d="M29.1,305.16C-12.39,408.71 165.55,402.47 204.47,390.61C210.29,407.26 258.47,562.02 258.47,562.02" style="fill:none;fill-rule:nonzero;stroke:rgb(29,29,30);stroke-width:4px;"/>
                                </g>
                                <g transform="matrix(1.00153,0,0,1.00153,-1.02442e-13,-18.7835)">
                                    <path d="M254.11,390.8C228.423,385.514 209.594,363.065 208.86,336.85" style="fill:none;fill-rule:nonzero;stroke:rgb(29,29,30);stroke-width:4px;"/>
                                </g>
                                <g transform="matrix(1.00153,0,0,1.00153,1,-20.7835)">
                                    <path d="M177.07,414.3C183.345,413.376 189.564,412.107 195.7,410.5C197.24,415.16 205.79,442.93 215.26,473.83" style="fill:none;fill-rule:nonzero;stroke:rgb(29,29,30);stroke-width:4px;"/>
                                </g>
                                <g transform="matrix(1.00153,0,0,1.00153,-1.02442e-13,-18.7835)">
                                    <path d="M253.82,388.78C250.56,372.51 247.82,360.91 246.34,358.09C228.94,325.83 131.18,322.23 107.99,322.61" style="fill:none;fill-rule:nonzero;stroke:rgb(29,29,30);stroke-width:4px;"/>
                                </g>
                                <g transform="matrix(1.00153,0,0,1.00153,-1.02442e-13,-18.7835)">
                                    <path d="M281.06,544.06L240.52,556.31" style="fill:none;fill-rule:nonzero;stroke:rgb(29,29,30);stroke-width:4px;"/>
                                </g>
                                <g transform="matrix(1.00153,0,0,1.00153,2.87439,-7.7767)">
                                    <path d="M281.06,544.06L240.52,556.31" style="fill:none;fill-rule:nonzero;stroke:rgb(29,29,30);stroke-width:4px;"/>
                                </g>
                                <g transform="matrix(1.00153,0,0,1.00153,-1.02442e-13,-18.7835)">
                                    <path d="M172.28,207.35L192.74,228.23C192.74,228.23 208.22,195 219,177.42C216.82,174.28 213,161.77 213.49,159.42C213.98,157.07 225.24,134.89 227.96,136.18C230.68,137.47 233.22,141.8 231.83,146.18C233.44,140.41 236.16,132.43 238.56,131.64C240.96,130.85 246.01,131.89 245.79,135.94C246.94,133.29 248.97,131.43 251.29,131.33C253.29,131.24 257.37,132.95 257.65,135.47C257.99,138.62 253.49,146.14 252.94,147.21C255.04,144.35 255.02,144.21 256.28,144.21C258.81,144.3 263.09,148.06 261,153.49C258.91,158.92 248.58,184.26 240.58,185.34C240.95,190.26 217.11,258.91 217.11,258.91L180.99,257.47L154.68,222.67L172.28,207.35Z" style="fill:rgb(226,173,144);"/>
                                </g>
                                <g transform="matrix(1.0257,0,0,1.5574,-1.94404,-78.84)">
                                    <path d="M98.67,91.68C98.67,80.313 108.023,70.96 119.39,70.96C130.757,70.96 140.11,80.313 140.11,91.68C140.11,103.047 130.757,112.4 119.39,112.4L119.38,112.4C108.019,112.4 98.67,103.051 98.67,91.69L98.67,91.68Z" style="fill:rgb(18,18,18);"/>
                                </g>
                                <g id="shirt-body" serif:id="shirt body" transform="matrix(1.00153,0,0,1.00153,-1.02442e-13,-18.7835)">
                                    <path d="M101.12,131.92C34.69,132 12.49,287.92 19.43,298.61C24.52,306.45 106.78,329.665 127.43,322.585C134.72,320.085 131.69,280.97 142.43,241.67C153.88,232.27 175.55,214.47 179.08,211.04C178.08,203.51 160.67,173.17 142.64,159.73C136.41,145.5 124.85,131.92 101.12,131.92Z" style="fill:rgb(114,90,143);"/>
                                </g>
                                <g transform="matrix(1.00153,0,0,1.00153,-1.02442e-13,-18.7835)">
                                    <path d="M38.58,292.48C37.27,273.14 55.75,201.29 69.58,179.91" style="fill:none;fill-rule:nonzero;stroke:rgb(56,31,95);stroke-width:4px;"/>
                                </g>
                                <g transform="matrix(1.00153,0,0,1.00153,-1.02442e-13,-18.7835)">
                                    <path d="M159.2,217.63L176,202.72" style="fill:none;fill-rule:nonzero;stroke:rgb(56,31,95);stroke-width:4px;"/>
                                </g>
                                <g transform="matrix(1.00153,0,0,1.00153,-1.02442e-13,-18.7835)">
                                    <path d="M118.3,237.86C118.3,237.86 150.01,277.86 158.35,281.11C166.69,284.36 256.77,283.32 263.35,282.55C269.93,281.78 268.73,286.8 274.68,287.12C280.84,287.46 284.39,282.01 285.23,279.26C288.99,283.44 295.62,289.87 299.97,287.63C303.05,286.03 303.09,284.63 300.97,282.42C303.97,284.15 309.39,286.69 311.58,284.98C315.1,282.24 315.43,279.68 314.24,277.55C310.57,270.96 298.75,261.63 295.94,260.55C292.7,259.27 282.83,262.79 278.08,263.08C256.55,264.41 202.26,251.02 184.45,250.21C181.83,245.21 154.68,212.38 152.58,209.1C145.13,215.47 118.3,237.86 118.3,237.86Z" style="fill:rgb(226,173,144);"/>
                                </g>
                                <g transform="matrix(1.00153,0,0,1.00153,-1.02442e-13,-18.7835)">
                                    <path d="M79.53,196.92C82.75,203.57 98.68,233.02 112.18,243.41C117.33,238.53 154.45,206.9 154.45,206.9C149.71,198.09 126.92,170.47 119.53,163.7" style="fill:none;fill-rule:nonzero;stroke:rgb(56,31,95);stroke-width:4px;"/>
                                </g>
                                <g transform="matrix(1.00153,0,0,1.00153,-1.02442e-13,-18.7835)">
                                    <path d="M105.19,236.69L149.81,199.82" style="fill:none;fill-rule:nonzero;stroke:rgb(56,31,95);stroke-width:4px;"/>
                                </g>
                                <g transform="matrix(1.00153,0,0,1.00153,-1.02442e-13,-18.7835)">
                                    <path d="M137.55,150.57C137.241,151.558 136.775,152.49 136.17,153.33C130.87,160.73 115.93,159.92 102.8,151.53" style="fill:none;fill-rule:nonzero;stroke:rgb(56,31,95);stroke-width:4px;"/>
                                </g>
                                <g transform="matrix(1.00153,0,0,1.00153,-1.02442e-13,-18.7835)">
                                    <path d="M142.77,159.8C145.3,166.38 148.77,181.73 147.3,196.42" style="fill:none;fill-rule:nonzero;stroke:rgb(56,31,95);stroke-width:4px;"/>
                                </g>
                                <g transform="matrix(1.00153,0,0,1.00153,-1.02442e-13,-18.7835)">
                                    <path d="M86,279C91.55,278.13 121.85,278.75 116.25,280.65C110.65,282.55 100.17,283.9 104.84,285C109.326,286.051 113.871,286.833 118.45,287.34" style="fill:none;fill-rule:nonzero;stroke:rgb(56,31,95);stroke-width:4px;"/>
                                </g>
                                <g transform="matrix(1.00153,0,0,1.00153,-1.02442e-13,-18.7835)">
                                    <path d="M294.48,262.25C297.89,259.45 307.13,252.62 310.09,252.66C313.05,252.7 322.01,261.12 322.21,263.33C322.41,265.54 319.56,269.03 317.86,269.28C316.16,269.53 310.69,264.28 309.49,264.75C308.29,265.22 305.65,268.02 304.88,269.26C304.11,270.5 291.08,265 294.48,262.25Z" style="fill:rgb(226,173,144);"/>
                                </g>
                                <g transform="matrix(1,0,0,1,15.6214,2.65249)">
                                    <path d="M153.77,77.3L158.893,79.954" style="fill:none;stroke:black;stroke-width:4.05px;stroke-linecap:square;stroke-miterlimit:1.5;"/>
                                </g>
                                <g transform="matrix(1.00153,0,0,1.00153,-1.02442e-13,-18.7835)">
                                    <path d="M109.45,99.85L109.45,99.84C109.45,82.582 123.652,68.38 140.91,68.38C158.168,68.38 172.37,82.582 172.37,99.84C172.37,117.098 158.168,131.3 140.91,131.3L140.9,131.3C123.649,131.295 109.455,117.101 109.45,99.85Z" style="fill:rgb(226,173,144);"/>
                                </g>
                                <g transform="matrix(1.00153,0,0,1.00153,-1.02442e-13,-18.7835)">
                                    <path d="M149.62,37.54C143.572,37.558 137.83,39.238 133.93,43.86C131.344,42.885 128.604,42.377 125.84,42.36C125.729,42.358 125.618,42.358 125.506,42.358C112.642,42.358 100.056,44.943 100.056,57.808C100.056,60.175 99.415,66.53 100.12,68.79C97.296,71.388 98.685,76.053 98.68,79.89C98.726,86.603 103.578,92.392 110.18,93.61C110.34,92.84 110.34,92.3 110.59,91.42C111.27,89.08 121.45,84.8 122.59,85.57C123.487,86.214 124.509,86.663 125.59,86.89C125.683,86.895 125.779,86.868 125.87,86.89C142.468,90.868 139.406,81.168 143.56,73.64C151.581,76.819 143.313,87.427 154.68,87.427C166.047,87.427 182.09,98.317 182.09,86.95C182.09,75.583 191.737,56.23 180.37,56.23C180.356,46.425 165.93,39.364 154.68,37.891C152.901,37.658 151.201,37.54 149.65,37.54L149.62,37.54Z" style="fill:rgb(18,18,18);"/>
                                </g>
                                <g transform="matrix(1.00153,0,0,1.00153,-1.02442e-13,-18.7835)">
                                    <path d="M101.11,80.79C101.126,74.12 106.62,68.64 113.29,68.64C119.972,68.64 125.47,74.138 125.47,80.82C125.47,87.502 119.972,93 113.29,93C106.608,93 101.11,87.502 101.11,80.82L101.11,80.79Z" style="fill:rgb(226,173,144);"/>
                                </g>
                                <g transform="matrix(1.00153,0,0,1.00153,-1.02442e-13,-18.7835)">
                                    <path d="M113.67,93C113.8,97.89 103.56,128.81 99.52,134.73C101.52,139.46 121.09,151.32 130.08,148.79C131.08,142.79 134.43,130.73 136.5,128.05C138.57,125.37 113.54,88.07 113.67,93Z" style="fill:rgb(226,173,144);"/>
                                </g>
                                <g transform="matrix(0.947354,-0.324933,0.324933,0.947354,-28.1226,29.0661)">
                                    <path d="M140.72,97C141.72,94.63 143.72,93.2 145.11,93.81C146.5,94.42 146.78,96.81 145.75,99.2C144.72,101.59 142.75,103 141.36,102.39C139.97,101.78 139.68,99.38 140.72,97Z" style="fill:rgb(170,98,96);"/>
                                </g>
                                <g transform="matrix(0.967403,-0.259215,0.259215,0.967403,-25.137,24.027)">
                                    <path d="M164.47,102.41C165.47,100.04 167.47,98.61 168.86,99.21C170.25,99.81 170.53,102.21 169.5,104.6C168.47,106.99 166.5,108.4 165.11,107.79C163.72,107.18 163.43,104.77 164.47,102.41Z" style="fill:rgb(170,98,96);"/>
                                </g>
                                <g transform="matrix(1.00153,0,0,1.00153,-1.02442e-13,-18.7835)">
                                    <path d="M140.6,119.81C136.683,118.567 133.877,115.082 133.5,110.99" style="fill:none;fill-rule:nonzero;stroke:rgb(170,98,96);stroke-width:4px;"/>
                                </g>
                                <g transform="matrix(1.00153,0,0,1.00153,-1.02442e-13,-18.7835)">
                                    <path d="M135.11,130.77C126.68,129.189 119.252,124.23 114.56,117.05" style="fill:none;fill-rule:nonzero;stroke:rgb(170,98,96);stroke-width:4px;"/>
                                </g>
                                <g transform="matrix(1.00153,0,0,1.00153,-1.02442e-13,-18.7835)">
                                    <path d="M110.94,88.13C107.845,87.289 105.68,84.457 105.68,81.25C105.68,77.338 108.899,74.12 112.81,74.12C116.721,74.12 119.94,77.338 119.94,81.25" style="fill:none;fill-rule:nonzero;stroke:rgb(170,98,96);stroke-width:4px;"/>
                                </g>
                                <g transform="matrix(1.00153,0,0,1.00153,-1.02442e-13,-18.7835)">
                                    <path d="M218,255.29L184.73,250.21L164.08,223.69" style="fill:none;fill-rule:nonzero;stroke:rgb(170,98,96);stroke-width:4px;"/>
                                </g>
                                <g transform="matrix(1.00153,0,0,1.00153,-1.02442e-13,-18.7835)">
                                    <path d="M231.26,174.55C232.5,171.85 235.94,165.93 234.75,163.35C233.56,160.77 225.32,157.28 226.33,154.81C227.34,152.34 231.92,145.66 231.92,145.66" style="fill:none;fill-rule:nonzero;stroke:rgb(170,98,96);stroke-width:4px;"/>
                                </g>
                                <g transform="matrix(1.00153,0,0,1.00153,-1.02442e-13,-18.7835)">
                                    <path d="M245.74,135.92L239.43,148.82" style="fill:none;fill-rule:nonzero;stroke:rgb(170,98,96);stroke-width:4px;"/>
                                </g>
                                <g transform="matrix(1.00153,0,0,1.00153,-1.02442e-13,-18.7835)">
                                    <path d="M253.24,147.2L248.11,154.48" style="fill:none;fill-rule:nonzero;stroke:rgb(170,98,96);stroke-width:4px;"/>
                                </g>
                                <g transform="matrix(1.00153,0,0,1.00153,-1.02442e-13,-18.7835)">
                                    <path d="M296.59,260.86L305.75,267.86" style="fill:none;fill-rule:nonzero;stroke:rgb(170,98,96);stroke-width:4px;"/>
                                </g>
                                <g transform="matrix(1.00153,0,0,1.00153,-1.02442e-13,-18.7835)">
                                    <path d="M300.84,282L294,275.68" style="fill:none;fill-rule:nonzero;stroke:rgb(170,98,96);stroke-width:4px;"/>
                                </g>
                                <g transform="matrix(0.961882,0.273465,-0.243008,0.854755,20.3643,-30.4989)">
                                    <path d="M154,72C154,69.24 152.009,67 149.557,67L140.443,67C137.991,67 136,69.24 136,72L136,82C136,84.76 137.991,87 140.443,87L149.557,87C152.009,87 154,84.76 154,82L154,72Z" style="fill:none;stroke:black;stroke-width:4.28px;stroke-miterlimit:1.5;"/>
                                </g>
                                <g transform="matrix(0.961882,0.273465,-0.243008,0.854755,46.9342,-22.4989)">
                                    <path d="M154,72C154,69.24 152.009,67 149.557,67L140.443,67C137.991,67 136,69.24 136,72L136,82C136,84.76 137.991,87 140.443,87L149.557,87C152.009,87 154,84.76 154,82L154,72Z" style="fill:none;stroke:black;stroke-width:4.28px;stroke-miterlimit:1.5;"/>
                                </g>
                                <g transform="matrix(1.00153,0,0,1.00153,-3.25244,-18.5482)">
                                    <path d="M157.58,100.68C157.27,103.45 157.88,109.68 159.97,112.4" style="fill:none;fill-rule:nonzero;stroke:rgb(170,98,96);stroke-width:4px;"/>
                                </g>
                                <g transform="matrix(1,0,0,1,0,1)">
                                    <path d="M149.862,76.694L158.733,79.625" style="fill:none;stroke:black;stroke-width:4.05px;stroke-linecap:square;stroke-miterlimit:1.5;"/>
                                </g>
                                <g transform="matrix(1,0,0,1,-26.4213,-10.3428)">
                                    <path d="M153.77,77.3L158.893,79.954" style="fill:none;stroke:black;stroke-width:4.05px;stroke-linecap:square;stroke-miterlimit:1.5;"/>
                                </g>
                            </g>
                        </g>
                    </g>
                </g>
            </g>
        </g>
    </g>
</svg>
